<svg width="450" height="450" viewBox="0 0 375 372" fill="none" xmlns="http://www.w3.org/2000/svg">
<path d="M175.727 133.135C169.3 131.198 161.172 124.564 156.33 117.302C153.203 112.613 151.919 109.211 150.688 102.356C148.34 89.2776 153.923 78.5181 166.294 72.2769C171.899 69.4492 175.909 69.5513 182.577 72.6918C189.846 76.1156 196.054 82.5679 200.007 90.8093C202.875 96.7875 203.119 97.9093 203.1 105.063C203.081 112.085 202.809 113.363 200.255 118.432C197.295 124.304 191.753 130.661 187.781 132.74C185.272 134.054 179.413 134.246 175.727 133.135V133.135Z" fill="black"/>
<path d="M152.86 213.346C144.658 212.185 124.274 206.725 114.142 202.975C97.0263 196.64 83.4815 189.633 72.0945 181.222C59.434 171.871 52.7695 163.527 52.7695 157.027C52.7695 153.629 53.847 152.116 57.969 149.725C61.3793 147.746 83.1799 141.243 89.166 140.418C91.3108 140.123 97.0825 139.132 101.992 138.217C119.467 134.959 130.404 136.608 129.734 142.398C129.499 144.432 128.819 144.939 124.696 146.156C122.074 146.929 115.64 148.829 110.397 150.377C105.154 151.926 98.3111 153.894 95.19 154.752C88.3014 156.646 77.9004 161.194 77.9004 162.313C77.9004 163.746 87.1604 171.606 92.3616 174.587C101.446 179.794 115.113 184.916 123.396 186.218C128.079 186.953 137.67 187.445 147.401 187.449C156.314 187.453 165.673 187.891 168.199 188.424C179.753 190.862 189.181 198.873 187.649 204.95C187.112 207.077 182.711 209.929 176.711 212.036C172.177 213.629 159.698 214.314 152.86 213.346V213.346Z" fill="black"/>
<path d="M191.423 326.435C183.68 324.172 176.454 320.819 173.008 317.889C172.139 317.151 171.491 315.4 171.491 313.791C171.491 310.619 174.436 306.547 184.65 295.599C204.745 274.058 208.41 268.872 215.551 251.881C216.114 250.541 217.35 244.032 218.298 237.418C220.453 222.368 220.586 199.4 218.63 180.059C216.287 156.886 218.135 149.717 227.56 145.422C233.255 142.826 237.388 143.021 244.376 146.214C253.005 150.156 257.169 153.844 275.341 173.642C277.732 176.247 279.951 178.116 280.273 177.795C280.852 177.219 278.058 170.421 274.492 163.73C269.542 154.441 267.354 150.536 265.548 147.769C264.464 146.108 261.478 141.319 258.913 137.127C256.348 132.935 252.243 126.335 249.791 122.46C247.338 118.586 244.586 114.057 243.674 112.396C242.762 110.736 240.143 106.077 237.853 102.043C228.707 85.931 221.247 65.0784 222.203 58.2958C222.998 52.657 228.984 48.4371 234.303 49.7661C239.964 51.1807 246.932 61.4353 251.066 74.4355C254.449 85.0758 260.496 101.622 262.259 105.063C263.232 106.961 265.008 110.843 266.207 113.69C267.405 116.537 269.822 122.167 271.577 126.2C277.653 140.161 283.441 154.256 284.671 158.087C285.35 160.203 286.916 164.448 288.151 167.52C290.769 174.036 296.279 195.247 296.279 198.811C296.279 201.723 293.565 204.71 290.92 204.71C285.3 204.71 277.331 198.373 269.539 187.707C264.332 180.58 249.593 166.367 241.638 160.803L236.22 157.014L236.797 162.615C237.114 165.695 237.766 173.359 238.247 179.644C238.727 185.93 239.702 195.985 240.413 201.989C242.971 223.592 243.778 242.813 242.686 256.18C240.252 285.987 231.668 312.697 221.547 321.951C213.369 329.429 205.617 330.583 191.423 326.435V326.435Z" fill="black"/>
<path d="M166.291 371.629C165.576 371.49 162.066 370.917 158.492 370.357C148.381 368.773 132.058 364.452 122.529 360.836C95.0011 350.391 75.3358 337.746 54.9066 317.354C39.415 301.891 29.3876 287.978 19.7346 268.553C4.39408 237.684 -2.50162 201.518 0.815991 169.332C4.07034 137.76 15.017 107.17 32.0483 82.0548C38.1942 72.9917 49.6254 58.9854 53.9925 55.1671C54.9876 54.297 58.1416 51.3705 61.0013 48.6638C86.8676 24.1812 126.013 5.75193 161.525 1.33848C176.079 -0.47032 199.75 -0.4422 213.953 1.40076C270.723 8.76706 322.408 44.3704 351.913 96.4354C368.414 125.553 377.623 168.184 374.341 200.262C370.947 233.429 362.718 258.392 346.422 284.952C341.481 293.006 338.6 296.854 330.381 306.383C308.3 331.983 284.781 348.524 252.957 360.834C243.243 364.592 223.062 369.679 211.941 371.172C206.043 371.965 169.866 372.326 166.291 371.629V371.629ZM217.221 352.616C252.612 346.552 285.295 329.234 310.144 303.379C328.597 284.179 343.807 258.632 350.008 236.423C356.585 212.869 356.404 214.276 356.446 186.592C356.488 159.12 356.476 159.01 351.151 140.004C340.545 102.147 316.835 69.0942 284.003 46.3961C274.589 39.8883 258.862 31.754 246.474 26.9859C238.083 23.7565 220.939 19.5791 209.187 17.9006C191.697 15.4026 166.284 16.6889 150.259 20.8831C146.923 21.7564 142.664 22.74 140.795 23.069C136.318 23.8569 121.99 29.4987 111.696 34.5268C70.6799 54.5623 39.3225 91.0254 25.4398 134.828C21.3818 147.632 20.9753 149.441 19.3333 162.004C16.3841 184.57 18.0413 212.092 23.4374 230.161C24.8544 234.906 26.3256 239.953 26.7066 241.377C27.7525 245.285 34.9738 261.712 38.1501 267.409C39.6917 270.173 43.0886 275.542 45.6986 279.338C62.3242 303.519 78.1475 318.378 102.597 332.77C115.173 340.173 138.456 349.425 148.244 350.909C150.306 351.221 155.066 352.073 158.823 352.801C176.36 356.201 196.679 356.136 217.221 352.616V352.616Z" fill="black"/>
<path d="M171.057 354.223C162.738 353.466 142.691 349.342 135.603 346.93C97.0971 333.824 66.9999 310.693 44.8494 277.179C32.5511 258.573 23.8023 235.655 20.149 212.475C18.1614 199.864 18.1757 171.387 20.1759 158.553C24.3158 131.99 37.9095 101.593 55.092 80.4746C61.0307 73.1756 74.0829 60.191 81.3345 54.3678C105.046 35.3268 136.392 22.1196 166.848 18.3382C176.678 17.1177 201.29 17.1413 209.659 18.3792C219.53 19.8392 240.274 25.0618 247.407 27.8828C281.571 41.3942 309.27 63.4091 328.661 92.462C339.154 108.182 346.304 124.284 352.264 145.612L355.639 157.69L355.616 186.161L355.594 214.632L352.401 226.348C348.193 241.791 345.549 248.953 339.918 260.153C310.155 319.348 251.02 355.512 185.356 354.676C179.398 354.6 172.964 354.396 171.057 354.223H171.057ZM214.629 327.231C228.219 321.091 238.531 296.612 242.62 260.789C244.029 248.447 243.207 224.011 240.489 197.377C237.915 172.162 236.683 158.648 236.928 158.317C237.025 158.187 239.401 159.767 242.21 161.828C250.102 167.619 262.046 179.263 269.532 188.465C279.005 200.108 284.89 204.71 290.304 204.71C297.116 204.71 297.738 200.312 293.296 183.573C288.638 166.019 282.048 149.061 261.784 102.475C259.926 98.2041 256.347 88.6923 253.83 81.3374C248.252 65.0372 244.416 57.4549 239.441 52.8888C236.475 50.1674 234.978 49.4158 232.521 49.4158C228.476 49.4158 224.854 51.5797 222.923 55.1497C221.553 57.6822 221.502 58.6398 222.444 64.1094C224.956 78.6918 234.782 99.0484 255.121 131.808C267.3 151.424 278.008 170.634 279.406 175.377C279.816 176.768 275.157 172.595 266.279 163.62C254.666 151.881 251.599 149.266 246.646 146.884C236.3 141.908 227.481 142.699 221.829 149.108C217.816 153.658 217.107 157.652 217.851 171.494C219.886 209.329 219.681 227.2 217.036 242.671C215.986 248.813 214.588 253.029 211.459 259.495C206.423 269.899 201.36 276.712 187.089 292.289C174.187 306.371 171.49 310.11 171.49 313.916C171.49 317.391 172.862 318.813 179.361 322.08C192.007 328.435 207.09 330.638 214.629 327.231ZM177.557 212.076C179.701 211.309 182.919 209.721 184.706 208.547C187.428 206.758 187.956 205.924 187.956 203.406C187.956 199.208 183.211 194.212 175.933 190.747L170.191 188.012L149.826 187.291C138.625 186.895 126.147 185.972 122.095 185.24C113.706 183.725 99.9554 178.512 92.5789 174.051C87.4579 170.954 78.7662 163.667 78.7662 162.471C78.7662 161.069 91.1451 156.394 107.353 151.677C128.601 145.492 129.898 144.959 129.881 142.421C129.852 137.991 126.631 136.553 116.741 136.553C109.474 136.553 87.8793 139.835 79.6328 142.192C67.1862 145.75 58.1496 149.038 55.5852 150.942C53.0973 152.789 52.7688 153.511 52.7688 157.134C52.7688 165.994 64.3983 177.912 84.5909 189.746C101.061 199.398 127.146 208.707 151.559 213.645C155.989 214.541 173.641 213.476 177.557 212.076V212.076ZM189.819 131.846C193.221 129.544 197.809 123.715 201.055 117.573C202.813 114.244 203.107 112.459 203.113 105.05C203.12 97.0111 202.921 96.0055 200.261 90.6211C194.482 78.9235 183.258 70.1217 174.122 70.1217C166.308 70.1217 155.782 77.4652 152.272 85.3653C148.717 93.366 149.406 104.649 154.025 114.065C156.996 120.121 165.472 128.661 171.461 131.632C177.87 134.811 185.308 134.898 189.819 131.846V131.846Z" fill="#D4FF2A"/>
</svg>
